<?xml version="1.0" encoding="UTF-8"?>
<svg version="1.1" xmlns="http://www.w3.org/2000/svg" width="400" height="400">
<path d="M0 0 C132 0 264 0 400 0 C400 132 400 264 400 400 C268 400 136 400 0 400 C0 268 0 136 0 0 Z " fill="#CDEEE2" transform="translate(0,0)"/>
<path d="M0 0 C0.64764816 -0.00365067 1.29529633 -0.00730133 1.96257019 -0.01106262 C4.09706081 -0.01914895 6.23078765 -0.00557495 8.36523438 0.0090332 C9.85209147 0.00955205 11.33894925 0.00903341 12.82580566 0.00752258 C15.93947614 0.00761222 19.05288725 0.01802398 22.16650391 0.03613281 C26.15463391 0.05881981 30.14238505 0.05936321 34.13056183 0.05261517 C37.20008706 0.04927127 40.26952615 0.05591318 43.33903503 0.0657444 C44.80941822 0.06958944 46.27981101 0.0707475 47.75019836 0.06915855 C49.80630702 0.06878706 51.86193276 0.08143099 53.91796875 0.09765625 C55.08726929 0.10226364 56.25656982 0.10687103 57.46130371 0.11161804 C60.37577724 0.36507826 62.04695353 0.75645231 64.45898438 2.37231445 C65.71705227 4.88845025 65.62029653 6.67650756 65.66772461 9.49291992 C65.68701523 10.5609787 65.70630585 11.62903748 65.72618103 12.72946167 C65.78375573 17.61119331 65.83317815 22.49277577 65.86401367 27.37475586 C65.88563192 29.95301679 65.91977911 32.53120359 65.96655273 35.10913086 C66.03329443 38.81958911 66.06097015 42.52852947 66.08007812 46.23950195 C66.10790878 47.39376678 66.13573944 48.54803162 66.16441345 49.73727417 C66.1566735 52.73439157 66.09429808 55.44339072 65.45898438 58.37231445 C62.12502391 61.61505651 60.4057202 62.27095087 55.81054688 62.76293945 C54.58078125 62.7165332 53.35101563 62.67012695 52.08398438 62.62231445 C50.83875 62.5862207 49.59351563 62.55012695 48.31054688 62.51293945 C47.36953125 62.4665332 46.42851562 62.42012695 45.45898438 62.37231445 C45.12898438 63.69231445 44.79898438 65.01231445 44.45898438 66.37231445 C45.40197388 66.34089355 45.40197388 66.34089355 46.36401367 66.30883789 C74.39932549 65.4985243 74.39932549 65.4985243 82.27539062 71.83325195 C83.64648438 73.37231445 83.64648438 73.37231445 85.45898438 76.37231445 C85.89210938 77.01168945 86.32523437 77.65106445 86.77148438 78.30981445 C88.07993102 82.23515437 88.02543039 85.99160228 86.45898438 89.80981445 C86.12898438 90.32543945 85.79898438 90.84106445 85.45898438 91.37231445 C84.79898438 91.37231445 84.13898438 91.37231445 83.45898438 91.37231445 C82.79898438 89.72231445 82.13898438 88.07231445 81.45898438 86.37231445 C77.11714235 86.55695812 77.11714235 86.55695812 73.45898438 88.37231445 C73.36041511 91.48756167 73.32183928 94.5846922 73.31835938 97.70043945 C73.30002763 99.63404495 73.28045699 101.56763902 73.25976562 103.5012207 C73.23080728 106.56049759 73.2089849 109.61904402 73.20849609 112.6784668 C73.20516032 115.62395588 73.17059567 118.5677454 73.13085938 121.51293945 C73.13792908 122.42456848 73.14499878 123.33619751 73.15228271 124.27545166 C73.06521314 128.82261993 72.94799519 130.7544814 70.04199219 134.42602539 C65.93321513 137.52197726 62.93402401 137.5645707 57.93579102 137.65698242 C57.1600322 137.67491348 56.38427338 137.69284454 55.58500671 137.71131897 C53.01313718 137.7685277 50.44121737 137.817569 47.86914062 137.86450195 C46.99211424 137.88085819 46.11508785 137.89721443 45.21148491 137.91406631 C40.57215138 137.99906943 35.93275174 138.07678144 31.29321289 138.1496582 C27.44676602 138.21149399 23.60103259 138.28789416 19.75512695 138.37719727 C15.11705263 138.48488758 10.47915792 138.56810316 5.84029961 138.63345718 C4.07027651 138.66244746 2.30037319 138.70005058 0.53071785 138.74633408 C-1.94261701 138.80912408 -4.41445213 138.84041294 -6.88842773 138.86401367 C-7.6225589 138.88976974 -8.35669006 138.91552582 -9.11306763 138.94206238 C-11.15660095 138.94235229 -11.15660095 138.94235229 -14.54101562 138.37231445 C-16.97711099 135.38008492 -17.90757165 132.98578559 -18.01757812 129.1574707 C-18.04851562 128.38854492 -18.07945312 127.61961914 -18.11132812 126.82739258 C-18.129375 126.0378418 -18.14742187 125.24829102 -18.16601562 124.43481445 C-18.32696167 118.43095242 -18.32696167 118.43095242 -19.03710938 112.4777832 C-19.93500714 106.94422719 -19.90416252 101.31716129 -20.05859375 95.7199707 C-20.10983398 94.34905273 -20.10983398 94.34905273 -20.16210938 92.95043945 C-20.18716553 92.11931641 -20.21222168 91.28819336 -20.23803711 90.43188477 C-20.36428946 88.15126433 -20.36428946 88.15126433 -22.54101562 86.37231445 C-25.62449388 86.20550336 -25.62449388 86.20550336 -28.54101562 86.37231445 C-29.20101562 88.35231445 -29.86101562 90.33231445 -30.54101562 92.37231445 C-32.54101562 91.37231445 -32.54101562 91.37231445 -33.54101562 88.37231445 C-34.38096559 82.28867685 -33.53690762 78.05041412 -29.95117188 73.03637695 C-27.93701057 70.65955502 -26.49592237 69.446826 -23.54101562 68.37231445 C-21.2433207 68.30631244 -19.01547073 68.3692402 -16.72460938 68.55981445 C-14.43221188 68.56729035 -14.43221188 68.56729035 -12.69335938 66.88793945 C-9.64729415 64.74297882 -7.34941012 65.04310167 -3.66601562 65.12231445 C-1.87550781 65.14551758 -1.87550781 65.14551758 -0.04882812 65.16918945 C3.19220311 65.3568661 6.27218261 65.76808904 9.45898438 66.37231445 C9.12898438 64.72231445 8.79898438 63.07231445 8.45898438 61.37231445 C7.65074219 61.51668945 6.8425 61.66106445 6.00976562 61.80981445 C4.94113281 61.99543945 3.8725 62.18106445 2.77148438 62.37231445 C1.71574219 62.55793945 0.66 62.74356445 -0.42773438 62.93481445 C-6.00271565 63.71824971 -6.00271565 63.71824971 -8.54101562 63.37231445 C-11.28159011 60.4533346 -11.9685911 58.2300832 -12.27148438 54.28637695 C-12.35245361 53.28348633 -12.43342285 52.2805957 -12.5168457 51.24731445 C-12.58669678 50.17481445 -12.65654785 49.10231445 -12.72851562 47.99731445 C-12.80674561 46.89129883 -12.88497559 45.7852832 -12.96557617 44.64575195 C-13.45104831 37.22549298 -13.76923824 29.80802455 -13.85351562 22.37231445 C-13.87115967 21.49655762 -13.88880371 20.62080078 -13.90698242 19.71850586 C-13.90093093 14.00920161 -13.30399214 8.46718325 -10.54101562 3.37231445 C-7.16868006 0.12179229 -4.59404497 -0.00247294 0 0 Z " fill="#064581" transform="translate(173.541015625,66.627685546875)"/>
<path d="M0 0 C1.17079102 0.01293091 1.17079102 0.01293091 2.36523438 0.02612305 C30.62432348 0.45577654 30.62432348 0.45577654 39.68359375 9.33203125 C46.53568675 16.84876145 46.14120549 24.44995884 46.375 34.1875 C43.405 33.5275 40.435 32.8675 37.375 32.1875 C36.95927734 34.17523438 36.95927734 34.17523438 36.53515625 36.203125 C36.16931107 37.9479251 35.80342343 39.69271631 35.4375 41.4375 C35.25509766 42.31019531 35.07269531 43.18289062 34.88476562 44.08203125 C34.61889648 45.34853516 34.61889648 45.34853516 34.34765625 46.640625 C34.10414429 47.80319824 34.10414429 47.80319824 33.85571289 48.98925781 C33.40138067 51.06686437 32.9023492 53.12734981 32.375 55.1875 C35.40584963 54.53271905 35.40584963 54.53271905 36.40234375 52.52929688 C36.70269531 51.82869141 37.00304687 51.12808594 37.3125 50.40625 C37.65023437 49.64699219 37.98796875 48.88773438 38.3359375 48.10546875 C38.67882812 47.30753906 39.02171875 46.50960937 39.375 45.6875 C40.05273993 44.11035331 40.73982771 42.53718121 41.4375 40.96875 C41.73785156 40.26814453 42.03820312 39.56753906 42.34765625 38.84570312 C43.375 37.1875 43.375 37.1875 46.375 36.1875 C48.40623075 38.21873075 47.63169618 42.36518866 47.69140625 45.16015625 C47.71218735 45.95779892 47.73296844 46.75544159 47.75437927 47.57725525 C47.81996158 50.13474611 47.87879967 52.6923428 47.9375 55.25 C47.98067699 56.97982882 48.02429101 58.70964679 48.06835938 60.43945312 C48.17565172 64.6886926 48.27689426 68.9380389 48.375 73.1875 C49.6434375 73.208125 50.911875 73.22875 52.21875 73.25 C52.93224609 73.26160156 53.64574219 73.27320312 54.38085938 73.28515625 C56.77534049 73.16789469 58.38632655 72.5132823 60.375 71.1875 C60.03325854 77.56667387 58.79391974 82.39515042 54.375 87.1875 C52.10161691 88.58343698 49.7818406 89.73455258 47.3828125 90.8984375 C45.07328981 92.38120499 44.53658076 93.32886062 43.625 95.875 C42.375 99.1875 42.375 99.1875 40.3125 100.5625 C30.03751653 102.7486667 19.36083246 102.47222455 8.90820312 102.53759766 C6.97285955 102.5541696 5.03757749 102.58147597 3.10253906 102.61962891 C-19.19006556 103.0548835 -19.19006556 103.0548835 -27.625 97.1875 C-38.37046776 84.96360933 -35.87765963 65.72988295 -35.97509766 50.41894531 C-35.99173151 48.51094428 -36.01911796 46.60300739 -36.05712891 44.6953125 C-36.33523999 30.57210601 -35.78413364 18.57184647 -25.44140625 7.8046875 C-18.12287719 1.28883582 -9.47610779 -0.16892012 0 0 Z " fill="#F2EEE4" transform="translate(86.625,39.8125)"/>
<path d="M0 0 C0.64764816 -0.00365067 1.29529633 -0.00730133 1.96257019 -0.01106262 C4.09706081 -0.01914895 6.23078765 -0.00557495 8.36523438 0.0090332 C9.85209147 0.00955205 11.33894925 0.00903341 12.82580566 0.00752258 C15.93947614 0.00761222 19.05288725 0.01802398 22.16650391 0.03613281 C26.15463391 0.05881981 30.14238505 0.05936321 34.13056183 0.05261517 C37.20008706 0.04927127 40.26952615 0.05591318 43.33903503 0.0657444 C44.80941822 0.06958944 46.27981101 0.0707475 47.75019836 0.06915855 C49.80630702 0.06878706 51.86193276 0.08143099 53.91796875 0.09765625 C55.08726929 0.10226364 56.25656982 0.10687103 57.46130371 0.11161804 C60.37577724 0.36507826 62.04695353 0.75645231 64.45898438 2.37231445 C65.71705227 4.88845025 65.62029653 6.67650756 65.66772461 9.49291992 C65.68701523 10.5609787 65.70630585 11.62903748 65.72618103 12.72946167 C65.78375573 17.61119331 65.83317815 22.49277577 65.86401367 27.37475586 C65.88563192 29.95301679 65.91977911 32.53120359 65.96655273 35.10913086 C66.03329443 38.81958911 66.06097015 42.52852947 66.08007812 46.23950195 C66.10790878 47.39376678 66.13573944 48.54803162 66.16441345 49.73727417 C66.14425346 57.54376654 66.14425346 57.54376654 63.19604492 61.10839844 C57.76070572 62.94669144 52.74355303 62.84498782 47.04492188 62.7277832 C45.23587875 62.71573601 45.23587875 62.71573601 43.39028931 62.70344543 C39.53773722 62.67449584 35.68619089 62.61832715 31.83398438 62.55981445 C28.00333081 62.51707995 24.17270914 62.48011613 20.34194946 62.44831848 C17.96212989 62.42690851 15.58235912 62.39844993 13.20272827 62.36161804 C6.65722844 62.28440611 0.3969217 62.59943482 -6.0874939 63.54267883 C-8.54101562 63.37231445 -8.54101562 63.37231445 -10.34336853 61.5381012 C-11.74611343 59.00142214 -12.04987233 57.17179205 -12.27148438 54.28637695 C-12.35245361 53.28348633 -12.43342285 52.2805957 -12.5168457 51.24731445 C-12.58669678 50.17481445 -12.65654785 49.10231445 -12.72851562 47.99731445 C-12.80674561 46.89129883 -12.88497559 45.7852832 -12.96557617 44.64575195 C-13.45104831 37.22549298 -13.76923824 29.80802455 -13.85351562 22.37231445 C-13.87115967 21.49655762 -13.88880371 20.62080078 -13.90698242 19.71850586 C-13.90093093 14.00920161 -13.30399214 8.46718325 -10.54101562 3.37231445 C-7.16868006 0.12179229 -4.59404497 -0.00247294 0 0 Z " fill="#FD4F67" transform="translate(173.541015625,66.627685546875)"/>
<path d="M0 0 C25.41 0 50.82 0 77 0 C77 6 77 6 75.75 7.875 C74 9 74 9 70 9 C69.9175 9.86625 69.835 10.7325 69.75 11.625 C68.22114379 18.50485296 63.62908989 23.08171194 58 27 C48.40012404 32.26822461 36.97818501 33.98751168 26.3125 30.9375 C18.38946514 27.87469342 12.28542203 22.23164967 8 15 C7.1875 12.0625 7.1875 12.0625 7 10 C6.030625 9.855625 5.06125 9.71125 4.0625 9.5625 C1 9 1 9 0 8 C0 5.36 0 2.72 0 0 Z " fill="#138EEE" transform="translate(161,207)"/>
<path d="M0 0 C-0.09015381 0.92635254 -0.18030762 1.85270508 -0.27319336 2.80712891 C-2.27317753 20.148667 -2.27317753 20.148667 3.20800781 35.87255859 C8.66658384 40.39826686 14.83830536 43.24254262 21.36474609 45.91259766 C24.74964015 47.309329 27.27894153 48.532719 30 51 C30.375 54.25 30.375 54.25 30 57 C15.86494845 60.37965894 3.90358518 63.16879031 -9.9375 57.6875 C-10.77345703 57.37876953 -11.60941406 57.07003906 -12.47070312 56.75195312 C-19.55431208 54.0493714 -19.55431208 54.0493714 -22 51 C-22.36076355 48.74104309 -22.36076355 48.74104309 -22.34057617 46.06958008 C-22.34034958 45.06876907 -22.34012299 44.06795807 -22.33988953 43.03681946 C-22.32440567 41.95861435 -22.30892181 40.88040924 -22.29296875 39.76953125 C-22.28872391 38.66397385 -22.28447906 37.55841644 -22.28010559 36.4193573 C-22.26329437 32.88349188 -22.22563685 29.34819355 -22.1875 25.8125 C-22.17245636 23.41732593 -22.1587674 21.02214294 -22.14648438 18.62695312 C-22.11338285 12.75110815 -22.06315893 6.87559458 -22 1 C-20.83198853 1.48569458 -20.83198853 1.48569458 -19.64038086 1.98120117 C-14.45330722 3.982649 -9.61706651 3.70562902 -4.5625 1.5 C-2 0 -2 0 0 0 Z " fill="#FE4D69" transform="translate(239,272)"/>
<path d="M0 0 C0.94166016 0.48750732 1.88332031 0.97501465 2.85351562 1.47729492 C5.80094558 2.90366989 7.30852863 3.38766146 10.5 3.3125 C11.2115625 3.30863281 11.923125 3.30476563 12.65625 3.30078125 C15.59435556 2.92372437 18.20458471 1.96122297 21 1 C21.14524585 5.85221567 21.28750675 10.70450739 21.42724609 15.55688477 C21.47496958 17.20046226 21.52344633 18.84401809 21.57275391 20.48754883 C21.88739344 30.99586699 22.07065859 41.486591 22 52 C19.01562351 53.37132834 16.01345523 54.6936129 13 56 C11.98679688 56.45503906 10.97359375 56.91007812 9.9296875 57.37890625 C-2.91055513 62.80893657 -14.79352902 61.4355736 -28 58 C-30 56 -30 56 -30.1171875 53.7109375 C-28.3661295 49.46186668 -24.96843161 47.92842648 -21.125 45.625 C-20.05378906 44.95984375 -20.05378906 44.95984375 -18.9609375 44.28125 C-18.23390625 43.83007812 -17.506875 43.37890625 -16.7578125 42.9140625 C-16.00636963 42.43493408 -15.25492676 41.95580566 -14.48071289 41.4621582 C-12 40 -12 40 -9.01733398 38.68432617 C-5.72069192 37.068189 -3.48052279 35.72188281 -1 33 C0.50102189 27.32829241 0.36299475 21.88954138 0.1875 16.0625 C0.18053411 14.50457164 0.17853357 12.94661271 0.18164062 11.38867188 C0.17846708 7.58968289 0.10769851 3.79740491 0 0 Z " fill="#FE4D68" transform="translate(162,272)"/>
<path d="M0 0 C20.13 0 40.26 0 61 0 C61 7.26 61 14.52 61 22 C40.87 22 20.74 22 0 22 C0 14.74 0 7.48 0 0 Z " fill="#044482" transform="translate(171,145)"/>
<path d="M0 0 C1.33417969 -0.00386719 1.33417969 -0.00386719 2.6953125 -0.0078125 C4.875 0.125 4.875 0.125 5.875 1.125 C6.25 4 6.25 4 5.875 7.125 C3.9375 8.6875 3.9375 8.6875 0.875 10.125 C-0.73366729 11.01272609 -2.33759242 11.90908216 -3.9375 12.8125 C-5.33287301 13.58416631 -6.7285522 14.3552804 -8.125 15.125 C-6.55375266 18.44906103 -4.95717282 20.72194427 -2.125 23.125 C-1.135 23.125 -0.145 23.125 0.875 23.125 C1.25591797 22.34576172 1.25591797 22.34576172 1.64453125 21.55078125 C6.70711679 11.29288321 6.70711679 11.29288321 8.875 9.125 C14.07677384 8.67267184 14.07677384 8.67267184 16.75 10.1875 C18.52950344 13.25220037 18.14773308 15.61443569 17.875 19.125 C16.8797246 22.15344061 15.53800016 24.95894117 14.125 27.8125 C13.77695312 28.55822266 13.42890625 29.30394531 13.0703125 30.07226562 C11.16811829 34.02107989 9.41187229 37.38446204 5.875 40.125 C-1.23819674 40.56050184 -6.49489709 36.02432986 -12.125 32.125 C-12.62128906 32.52332031 -13.11757813 32.92164063 -13.62890625 33.33203125 C-19.62525939 38.008504 -25.12937601 42.05472372 -33.125 41.125 C-35.53986943 38.71013057 -35.4211925 37.99792211 -35.4375 34.6875 C-35.45425781 33.90503906 -35.47101563 33.12257812 -35.48828125 32.31640625 C-35.02893277 29.54549771 -34.37996516 28.77473642 -32.125 27.125 C-29.64453125 26.17578125 -29.64453125 26.17578125 -26.9375 25.4375 C-26.03644531 25.18613281 -25.13539063 24.93476563 -24.20703125 24.67578125 C-23.51996094 24.49402344 -22.83289063 24.31226563 -22.125 24.125 C-22.785 23.09375 -23.445 22.0625 -24.125 21 C-26.06914427 17.50617551 -27.1759831 15.15376854 -26.125 11.125 C-23.72604172 8.95297021 -21.00008695 7.57869565 -18.125 6.125 C-17.24972656 5.66738281 -16.37445313 5.20976562 -15.47265625 4.73828125 C-10.19715466 2.03468352 -6.01535124 -0.01753747 0 0 Z " fill="#FD4E6A" transform="translate(306.125,144.875)"/>
<path d="M0 0 C8.87290787 0.21397688 19.79599995 5.18366622 26.125 11.4375 C27.34697879 15.09767232 27.26608559 16.11238972 25.6875 19.75 C24.9140625 21.0803125 24.9140625 21.0803125 24.125 22.4375 C23.465 22.4375 22.805 22.4375 22.125 22.4375 C22.125 23.0975 22.125 23.7575 22.125 24.4375 C22.80046875 24.60765625 23.4759375 24.7778125 24.171875 24.953125 C33.67130552 27.53389514 33.67130552 27.53389514 36.125 31.4375 C36.62073145 35.40335158 36.21991746 38.03325912 34.125 41.4375 C25.24192302 42.40305185 18.13597435 37.41898178 11.125 32.4375 C10.47273438 32.93121094 9.82046875 33.42492187 9.1484375 33.93359375 C8.27445313 34.57425781 7.40046875 35.21492188 6.5 35.875 C5.64148438 36.51308594 4.78296875 37.15117187 3.8984375 37.80859375 C0.75010653 39.65768391 -1.21060345 40.48078027 -4.875 40.4375 C-9.23583135 37.15557062 -11.46997226 33.04275092 -13.6875 28.1875 C-13.99228271 27.5272583 -14.29706543 26.8670166 -14.61108398 26.18676758 C-16.86096402 21.0460716 -17.73523911 17.07684531 -16.875 11.4375 C-14.875 9.4375 -14.875 9.4375 -11.9375 9.125 C-8.42465665 9.4834534 -8.03258556 9.81186678 -5.875 12.4375 C-4.9221958 14.09350054 -4.02875867 15.78464072 -3.1875 17.5 C-2.75050781 18.37785156 -2.31351563 19.25570312 -1.86328125 20.16015625 C-0.875 22.4375 -0.875 22.4375 -0.875 24.4375 C4.32612114 22.2602865 6.80590651 19.83041786 10.125 15.4375 C9.04992187 15.01210937 9.04992187 15.01210937 7.953125 14.578125 C-1.31145892 10.8415801 -1.31145892 10.8415801 -4.875 8.4375 C-6.125 5.25 -6.125 5.25 -5.875 2.4375 C-3.875 0.4375 -3.875 0.4375 0 0 Z " fill="#FE4E6A" transform="translate(93.875,144.5625)"/>
<path d="M0 0 C25.41 0 50.82 0 77 0 C77 6 77 6 75.75 7.8125 C71.96377515 10.381724 67.89910132 10.13077499 63.44311523 10.14526367 C62.79386078 10.14862228 62.14460632 10.1519809 61.47567749 10.15544128 C59.33662996 10.16491511 57.19766093 10.16689228 55.05859375 10.16796875 C53.5693407 10.1711827 52.08008796 10.17454688 50.59083557 10.17805481 C47.47306587 10.18403633 44.35532386 10.1858956 41.23754883 10.18530273 C37.24039 10.18520091 33.24340801 10.19887812 29.24629116 10.21607494 C26.17254315 10.22718331 23.09883813 10.22922234 20.0250721 10.22869301 C18.55106049 10.22987392 17.0770478 10.23430192 15.60305595 10.24202538 C13.54440693 10.25180637 11.48614529 10.24895548 9.42749023 10.24291992 C7.67020851 10.24505745 7.67020851 10.24505745 5.87742615 10.24723816 C3 10 3 10 0 8 C0 5.36 0 2.72 0 0 Z " fill="#014385" transform="translate(161,207)"/>
<path d="M0 0 C0 10.89 0 21.78 0 33 C-4.95 33.33 -9.9 33.66 -15 34 C-17.87232075 37.38192605 -19.28063605 39.23413647 -21 43 C-21.33 43 -21.66 43 -22 43 C-22 29.14 -22 15.28 -22 1 C-19.525 1.99 -19.525 1.99 -17 3 C-10.31542309 3.89515204 -5.91790619 0 0 0 Z " fill="#F6E409" transform="translate(239,272)"/>
<path d="M0 0 C4.48092 2.08594551 7.15401065 4.38502661 9 9 C9.65379146 13.43125323 9.62895494 16.82070949 7.5 20.8125 C2.42178451 25.25593856 -2.88455899 27.88747578 -9.75390625 27.58984375 C-14.73048064 26.28295204 -18.62323569 22.32300949 -21.19921875 17.9765625 C-22.47324294 14.83189791 -22.34706421 12.35495401 -22 9 C-17.06277688 -0.50872601 -9.91005511 -1.12189303 0 0 Z " fill="#148EEE" transform="translate(234,249)"/>
<path d="M0 0 C3.48057838 2.52341932 5.98622574 4.49608676 6.953125 8.85546875 C7.3824387 14.524361 5.7903894 17.93632937 2.1328125 22.21484375 C-1.1696462 25.44619688 -4.29078914 25.94154312 -8.75 26.3125 C-14.29639862 26.19172415 -18.57580566 23.63713761 -22.5 19.8125 C-24.54694933 15.68621289 -24.91095113 12.41515264 -24.5 7.8125 C-20.19456136 -2.47271453 -9.49573133 -3.22176599 0 0 Z " fill="#148EEE" transform="translate(181.5,250.1875)"/>
<path d="M0 0 C1.98 0.99 3.96 1.98 6 3 C8.30380278 3.4276491 8.30380278 3.4276491 10.5 3.3125 C11.2115625 3.30863281 11.923125 3.30476563 12.65625 3.30078125 C15.67189959 2.99036469 15.67189959 2.99036469 21 1 C21 13.87 21 26.74 21 40 C19.68 38.68 18.36 37.36 17 36 C17 35.34 17 34.68 17 34 C11.39 33.67 5.78 33.34 0 33 C0 22.11 0 11.22 0 0 Z " fill="#F7E405" transform="translate(162,272)"/>
<path d="M0 0 C22.11 0 44.22 0 67 0 C67 8.91 67 17.82 67 27 C44.89 27 22.78 27 0 27 C0 18.09 0 9.18 0 0 Z M3 2 C3 9.26 3 16.52 3 24 C23.13 24 43.26 24 64 24 C64 16.74 64 9.48 64 2 C43.87 2 23.74 2 3 2 Z " fill="#E1EB9F" transform="translate(168,143)"/>
<path d="M0 0 C4.27689867 2.30294544 7.18883554 4.4188193 9 9 C9 13.46867855 8.48810609 15.40913474 5.625 18.875 C1.51888569 22.1989973 -1.81431977 22.52735731 -7 22 C-10.47884669 19.99327106 -12.7062659 17.88120231 -14 14 C-14.40159538 10.93640096 -14.49323558 8.0559161 -14 5 C-9.53253269 -0.6431166 -6.94617898 -1.50500544 0 0 Z " fill="#1790EC" transform="translate(222,79)"/>
<path d="M0 0 C3.78835869 1.21199775 6.48654237 3.78760391 9.13671875 6.68359375 C10.71127614 9.83270854 10.48470993 12.20368191 10.13671875 15.68359375 C8.13379396 19.16357891 6.01618526 21.39043825 2.13671875 22.68359375 C-4.98289847 23.37258897 -4.98289847 23.37258897 -8.73828125 20.43359375 C-12.41476661 15.67578917 -13.51292407 12.85520052 -12.86328125 6.68359375 C-9.43208864 1.35932935 -6.48722128 -0.97128452 0 0 Z " fill="#2093E4" transform="translate(182.86328125,78.31640625)"/>
<path d="M0 0 C4.86393942 4.19305123 7.24634404 9.6692899 8 16 C8.07111754 19.00217621 8.05886791 21.99773677 8 25 C6.98679688 24.96519531 5.97359375 24.93039063 4.9296875 24.89453125 C3.5781417 24.86637405 2.22657781 24.83907597 0.875 24.8125 C-0.12273437 24.77479492 -0.12273437 24.77479492 -1.140625 24.73632812 C-5.86902292 24.66679286 -8.95121479 25.59721625 -13 28 C-13.13277344 27.10796875 -13.26554688 26.2159375 -13.40234375 25.296875 C-13.57894531 24.12640625 -13.75554687 22.9559375 -13.9375 21.75 C-14.11152344 20.58984375 -14.28554687 19.4296875 -14.46484375 18.234375 C-14.8727736 15.76893039 -15.33901303 13.40575438 -16 11 C-15.02160156 10.56300781 -15.02160156 10.56300781 -14.0234375 10.1171875 C-8.26454707 7.416115 -4.21457494 4.76912427 0 0 Z " fill="#F3E30B" transform="translate(228,225)"/>
<path d="M0 0 C1.50433594 0.01353516 1.50433594 0.01353516 3.0390625 0.02734375 C3.80992187 0.03894531 4.58078125 0.05054688 5.375 0.0625 C4.88515625 0.62582031 4.3953125 1.18914062 3.890625 1.76953125 C2.15856036 4.38994863 2.02272451 5.65616642 2.125 8.75 C2.14046875 9.53761719 2.1559375 10.32523438 2.171875 11.13671875 C2.17150946 13.06868749 2.17150946 13.06868749 3.375 14.0625 C4.89428038 14.13429964 6.41667482 14.14642007 7.9375 14.125 C8.76378906 14.11597656 9.59007812 14.10695312 10.44140625 14.09765625 C11.07949219 14.08605469 11.71757812 14.07445312 12.375 14.0625 C11.55002583 18.00404327 10.41638282 20.42996504 7.3125 22.9375 C3.77751798 25.19105104 0.70646405 25.90962636 -3.47265625 25.6953125 C-7.44684732 24.52685705 -9.48128078 21.44651392 -11.625 18.0625 C-13.48226616 14.34796768 -13.21001089 10.10670575 -12.625 6.0625 C-8.72117738 1.02862346 -6.16751802 -0.07171533 0 0 Z " fill="#178FEB" transform="translate(269.625,170.9375)"/>
<path d="M0 0 C0.639375 0.70125 1.27875 1.4025 1.9375 2.125 C6.15185674 6.35143226 11.32650512 10.10883504 17 12 C16.01 16.95 15.02 21.9 14 27 C11.69 26.34 9.38 25.68 7 25 C4.52384644 24.87089919 2.04156711 24.82777967 -0.4375 24.875 C-1.67371094 24.89304688 -2.90992188 24.91109375 -4.18359375 24.9296875 C-5.57771484 24.96449219 -5.57771484 24.96449219 -7 25 C-7.52269552 15.59148062 -4.99648885 7.92546508 0 0 Z " fill="#F3E30C" transform="translate(171,225)"/>
<path d="M0 0 C9.67907548 -0.68862988 9.67907548 -0.68862988 13.5625 1.875 C16.19656763 4.17136665 16.87795886 4.94870277 17.2734375 8.35546875 C17.52437925 15.35288291 16.75243803 18.79494882 12 24 C8.47604635 25.76197683 4.83654861 25.66341624 1 25 C-2.94875937 22.82489779 -5.53167414 20.4361993 -6.9375 16.125 C-6.958125 15.42375 -6.97875 14.7225 -7 14 C-4.03 14.33 -1.06 14.66 2 15 C2.2493357 13.39884424 2.47378648 11.79379841 2.6875 10.1875 C2.81511719 9.29417969 2.94273437 8.40085938 3.07421875 7.48046875 C3.26046094 4.93639221 3.26046094 4.93639221 1.51953125 3.30078125 C1.01808594 2.87152344 0.51664062 2.44226563 0 2 C0 1.34 0 0.68 0 0 Z " fill="#158EED" transform="translate(126,171)"/>
<path d="M0 0 C2.35878975 2.35878975 2.87753416 4.16665761 3.9375 7.3125 C5.25549971 11.22381089 6.86976961 14.47389215 9 18 C9 18.66 9 19.32 9 20 C8.38125 20.268125 7.7625 20.53625 7.125 20.8125 C4.7004767 21.95556848 4.7004767 21.95556848 3 25 C2.60986284 26.9896995 2.26797351 28.99019869 2 31 C-3.45669379 26.02477919 -8.42795866 20.95267664 -9.51953125 13.41015625 C-9.62035824 9.7915875 -9.70352477 6.55417058 -9 3 C-6.1265501 0.09661834 -4.05350272 -0.53335562 0 0 Z " fill="#F6E30A" transform="translate(255,152)"/>
<path d="M0 0 C1.35015859 4.05047576 0.62084998 6.7920168 0 11 C0.66 10.67 1.32 10.34 2 10 C6.0608573 9.54028031 8.33438682 9.63178845 11.9375 11.625 C15.25713604 17.0571317 14.37789892 22.79405995 14 29 C11.69 29.33 9.38 29.66 7 30 C7 24.72 7 19.44 7 14 C4.69 14.33 2.38 14.66 0 15 C-1.72951578 18.45903157 -1.40535763 22.43101162 -1.62109375 26.25 C-2 29 -2 29 -4 31 C-4 30.34 -4 29.68 -4 29 C-5.65 29.33 -7.3 29.66 -9 30 C-9.48048383 20.87080719 -7.89114452 11.67343355 -5 3 C-2.4375 1.3125 -2.4375 1.3125 0 0 Z " fill="#111010" transform="translate(66,74)"/>
<path d="M0 0 C3.125 0.25 3.125 0.25 4.78125 1.359375 C7.93420418 5.7955082 6.89028475 12.13383065 6.125 17.25 C3.75675748 22.58012449 1.01099191 26.99267206 -3.875 30.25 C-4.12894531 29.69570312 -4.38289062 29.14140625 -4.64453125 28.5703125 C-4.98871094 27.84585938 -5.33289063 27.12140625 -5.6875 26.375 C-6.02394531 25.65570313 -6.36039063 24.93640625 -6.70703125 24.1953125 C-7.86967097 21.94457194 -7.86967097 21.94457194 -10.875 20.25 C-9.46628327 15.93211942 -7.93640508 11.67904312 -6.3125 7.4375 C-5.87808594 6.29667969 -5.44367188 5.15585938 -4.99609375 3.98046875 C-3.48623653 0.303151 -3.48623653 0.303151 0 0 Z " fill="#F6E408" transform="translate(147.875,151.75)"/>
<path d="M0 0 C10.72580645 3.6391129 10.72580645 3.6391129 12.5 7.1875 C12.75797575 11.14312822 12.59440189 13.78409693 10.5 17.1875 C3.81172502 17.91448641 -0.86017395 15.71239128 -6.5 12.1875 C-8.40206337 10.61659945 -9.88823465 9.06789291 -11.5 7.1875 C-4.84866908 0.25975013 -4.84866908 0.25975013 0 0 Z " fill="#F4E30C" transform="translate(117.5,168.8125)"/>
<path d="M0 0 C2.01448473 1.54677072 3.81821231 3.18364692 5.63671875 4.953125 C6.29671875 5.283125 6.95671875 5.613125 7.63671875 5.953125 C5.29146046 11.60579883 0.26339395 13.6397874 -4.98828125 16.265625 C-7.91028105 17.11146705 -10.3374701 17.22208599 -13.36328125 16.953125 C-15.77815068 14.53825557 -15.65947375 13.82604711 -15.67578125 10.515625 C-15.69253906 9.73316406 -15.70929688 8.95070312 -15.7265625 8.14453125 C-15.26879468 5.38315764 -14.55772829 4.65454649 -12.36328125 2.953125 C-4.48481266 -1.98666081 -4.48481266 -1.98666081 0 0 Z " fill="#F6E309" transform="translate(286.36328125,169.046875)"/>
<path d="M0 0 C9.38801262 1.17350158 9.38801262 1.17350158 14 6 C16.8850004 10.42366728 17.48578712 13.75349908 17 19 C16 21.4375 16 21.4375 15 23 C14.34 23 13.68 23 13 23 C12.34 21.35 11.68 19.7 11 18 C5.6913151 18.58174845 5.6913151 18.58174845 1 21 C0.67 14.07 0.34 7.14 0 0 Z " fill="#F6506A" transform="translate(244,135)"/>
<path d="M0 0 C-0.20496094 0.7734375 -0.40992188 1.546875 -0.62109375 2.34375 C-2.14519115 8.2359543 -3.41736712 13.94061808 -4 20 C-4.99 19.34 -5.98 18.68 -7 18 C-10.12521833 17.83300768 -10.12521833 17.83300768 -13 18 C-13.66 19.98 -14.32 21.96 -15 24 C-17 23 -17 23 -18 20 C-18.84004961 13.91564065 -17.99273452 9.68220036 -14.4140625 4.6640625 C-10.13446522 -0.37214866 -6.20836088 -0.31567937 0 0 Z " fill="#FB5069" transform="translate(158,135)"/>
<path d="M0 0 C26.4 0 52.8 0 80 0 C79.67 2.31 79.34 4.62 79 7 C78.505 5.02 78.505 5.02 78 3 C52.26 3 26.52 3 0 3 C0 2.01 0 1.02 0 0 Z " fill="#E4EDA1" transform="translate(160,204)"/>
<path d="M0 0 C7.44748359 2.48249453 7.44748359 2.48249453 10.07421875 5.96484375 C12.12698715 10.47746965 11.9086743 15.21346214 11 20 C9.47601909 22.96722111 7.77795842 25.13798448 5 27 C3.35 27.33 1.7 27.66 0 28 C0 18.76 0 9.52 0 0 Z " fill="#1B8FED" transform="translate(239,79)"/>
<path d="M0 0 C3.49263388 2.30196324 4.95385491 4.0129623 6.75 7.8125 C7.54556655 12.805086 7.28645964 16.6322888 5.1875 21.25 C1.36183945 25.27184828 -2.77743948 26.89774182 -8.25 27.375 C-12.48069852 27.21861231 -14.76995529 25.31040164 -17.8046875 22.515625 C-21.40126968 18.27749033 -21.63511322 14.62219997 -21.4921875 9.21484375 C-21.16212612 5.94084781 -20.47592798 4.25384037 -18.25 1.8125 C-11.74790346 -3.03219938 -7.42020553 -2.71122894 0 0 Z M-17.25 4.8125 C-18.97447196 8.26144392 -18.61671096 12.03406745 -18.25 15.8125 C-16.65710448 19.47615969 -14.80551347 21.935979 -11.25 23.8125 C-6.0522354 24.3900294 -2.62263437 23.69446356 1.75 20.8125 C4.36273686 17.77835397 4.75942592 16.34035158 4.6875 12.3125 C3.3113035 7.17469972 1.31755508 4.77971484 -3.1875 2 C-9.32630749 -0.38035392 -12.07154867 0.81096942 -17.25 4.8125 Z " fill="#F2F0A2" transform="translate(226.25,77.1875)"/>
<path d="M0 0 C4.72841949 2.50328091 8.10642404 5.48942571 11 10 C11.98280233 14.04944119 11.91361339 17.40268917 9.8203125 21.0625 C7.04536271 24.51321477 4.4290767 27.05091214 0 28 C-4.76228288 28.45355075 -7.00964377 28.48583513 -11.3125 26.375 C-15.10014524 23.02777863 -16.71218139 20.41625503 -17.31640625 15.34375 C-17.50105993 10.91206159 -17.5140475 7.91386223 -15.3125 4 C-10.18716786 -0.43271969 -6.76112312 -1.94315743 0 0 Z M-14 7 C-15.55944339 10.11888678 -15.28316275 12.5454145 -15 16 C-13.40398686 19.93472545 -11.58734975 22.6084335 -8 25 C-2.65295206 25.43121354 0.66461829 25.46830537 5 22 C7.52171239 19.56524321 7.96895968 18.18279299 8.5625 14.6875 C7.80866176 9.74567153 5.70362708 7.24725597 2 4 C-4.90083289 0.12880106 -8.67321256 1.91533927 -14 7 Z " fill="#F2F3A3" transform="translate(185,76)"/>
<path d="M0 0 C0.33 8.91 0.66 17.82 1 27 C-6.25896552 25.79017241 -6.25896552 25.79017241 -9.08203125 22.0078125 C-10.99588778 17.82176035 -10.72376879 13.46213417 -10 9 C-7.98695396 4.97390792 -5.0106771 0 0 0 Z " fill="#158EEF" transform="translate(160,80)"/>
<path d="M0 0 C12.38100347 -0.11028714 24.65864238 -0.07650471 37 1 C36.67 2.32 36.34 3.64 36 5 C24.45 5 12.9 5 1 5 C0.67 3.35 0.34 1.7 0 0 Z " fill="#2388E3" transform="translate(182,128)"/>
<path d="M0 0 C10.89 0 21.78 0 33 0 C33.495 1.98 33.495 1.98 34 4 C22.78 4 11.56 4 0 4 C0 2.68 0 1.36 0 0 Z " fill="#DAD113" transform="translate(201,183)"/>
<path d="M0 0 C2.33944736 0.28730055 4.6739143 0.61936779 7 1 C6.36111113 6.06040549 4.13720723 10.28011534 1.9375 14.8125 C1.37192383 15.99489258 1.37192383 15.99489258 0.79492188 17.20117188 C-0.13170161 19.13652473 -1.06517467 21.06859549 -2 23 C-3.32 22.67 -4.64 22.34 -6 22 C-2.38297872 2.38297872 -2.38297872 2.38297872 0 0 Z " fill="#10100F" transform="translate(105,72)"/>
<path d="M0 0 C4.01354268 -0.39348458 6.37401014 -0.34629226 9.9375 1.625 C13.25713604 7.0571317 12.37789892 12.79405995 12 19 C9.69 19.33 7.38 19.66 5 20 C5.01160156 19.09636719 5.02320312 18.19273438 5.03515625 17.26171875 C5.04417969 16.08222656 5.05320312 14.90273437 5.0625 13.6875 C5.07410156 12.51574219 5.08570312 11.34398438 5.09765625 10.13671875 C5.14899898 6.96940805 5.14899898 6.96940805 4 4 C2.35 3.67 0.7 3.34 -1 3 C-0.67 2.01 -0.34 1.02 0 0 Z " fill="#0B0B0A" transform="translate(68,84)"/>
<path d="M0 0 C2.64 0.33 5.28 0.66 8 1 C6.4719611 6.09882455 4.28963144 10.65665659 1.875 15.375 C1.50246094 16.11105469 1.12992187 16.84710938 0.74609375 17.60546875 C-0.1656122 19.40550358 -1.08229932 21.20301402 -2 23 C-2.99 23 -3.98 23 -5 23 C-4.354523 15.09290669 -2.13002861 7.60866033 0 0 Z " fill="#0F0F0E" transform="translate(124,72)"/>
<path d="M0 0 C0 0.99 0 1.98 0 3 C-21.45 3 -42.9 3 -65 3 C-65 2.34 -65 1.68 -65 1 C-56.82036442 0.86942979 -48.64072615 0.73902977 -40.46108437 0.60884857 C-36.6631825 0.54839856 -32.8652816 0.48788935 -29.06738281 0.42724609 C-25.40399771 0.36875285 -21.74061019 0.31041349 -18.07722092 0.25218201 C-16.67774747 0.22990937 -15.27827491 0.20758075 -13.87880325 0.18519592 C-11.92262248 0.15391587 -9.96643827 0.12285114 -8.01025391 0.09179688 C-6.33813339 0.06514954 -6.33813339 0.06514954 -4.63223267 0.03796387 C-3.08826383 0.01569569 -1.54412941 0 0 0 Z " fill="#FAFEA2" transform="translate(234,167)"/>
<path d="M0 0 C1.32 0.33 2.64 0.66 4 1 C4 6.94 4 12.88 4 19 C1.69 18.67 -0.62 18.34 -3 18 C-3.33278764 11.18401613 -3.24201565 6.07877934 0 0 Z " fill="#191817" transform="translate(87,86)"/>
<path d="M0 0 C11.55 0 23.1 0 35 0 C35 0.99 35 1.98 35 3 C23.78 3 12.56 3 1 3 C0.67 2.01 0.34 1.02 0 0 Z " fill="#F2E107" transform="translate(168,177)"/>
<path d="M0 0 C6.7103553 0.57847891 11.59286749 1.40283071 16.375 6.5625 C18.54177269 11.14605761 18.35446263 15.01783075 18 20 C16.02 20.99 16.02 20.99 14 22 C14.11859375 21.41992188 14.2371875 20.83984375 14.359375 20.2421875 C15.06548037 15.96318898 15.30193964 13.65218962 13.4375 9.625 C9.25335547 5.11899819 5.01578736 3.71616516 -1 3 C-0.67 2.01 -0.34 1.02 0 0 Z " fill="#E8EAA5" transform="translate(215,75)"/>
<path d="M0 0 C0.92425781 -0.01224609 1.84851563 -0.02449219 2.80078125 -0.03710938 C4.13302734 -0.04000977 4.13302734 -0.04000977 5.4921875 -0.04296875 C6.30800293 -0.04707764 7.12381836 -0.05118652 7.96435547 -0.05541992 C10.125 0.1875 10.125 0.1875 13.125 2.1875 C13.125 2.8475 13.125 3.5075 13.125 4.1875 C5.205 4.1875 -2.715 4.1875 -10.875 4.1875 C-10.875 -2.02013087 -4.92825292 0.0034082 0 0 Z " fill="#DBD213" transform="translate(221.875,175.8125)"/>
<path d="M0 0 C6.93 0 13.86 0 21 0 C21.66 1.32 22.32 2.64 23 4 C15.41 4 7.82 4 0 4 C0 2.68 0 1.36 0 0 Z " fill="#E6D90D" transform="translate(169,183)"/>
<path d="M0 0 C3.96 0 7.92 0 12 0 C12 0.99 12 1.98 12 3 C8.04 3 4.08 3 0 3 C0 2.01 0 1.02 0 0 Z " fill="#F6FDA8" transform="translate(137,92)"/>
<path d="M0 0 C3.63 0 7.26 0 11 0 C11 0.99 11 1.98 11 3 C7.37 3 3.74 3 0 3 C0 2.01 0 1.02 0 0 Z " fill="#F6FDA9" transform="translate(251,92)"/>
<path d="M0 0 C2.86697492 1.28519565 4.97607712 2.57129254 7 5 C7 5.66 7 6.32 7 7 C4.6875 7.25 4.6875 7.25 2 7 C0.125 5.1875 0.125 5.1875 -1 3 C-0.67 2.01 -0.34 1.02 0 0 Z " fill="#232221" transform="translate(116,98)"/>
<path d="M0 0 C2.04119788 1.61594832 4.04072937 3.2856382 6 5 C6 5.66 6 6.32 6 7 C1.25 6.25 1.25 6.25 -1 4 C-0.625 1.875 -0.625 1.875 0 0 Z " fill="#0D0D0C" transform="translate(97,98)"/>
<path d="M0 0 C1.32 0 2.64 0 4 0 C4 1.98 4 3.96 4 6 C2.68 6.33 1.36 6.66 0 7 C0 4.69 0 2.38 0 0 Z " fill="#111010" transform="translate(88,75)"/>
<path d="M0 0 C0.66 0.33 1.32 0.66 2 1 C2 3.31 2 5.62 2 8 C1.01 8 0.02 8 -1 8 C-1.04241723 5.66705225 -1.04092937 3.33297433 -1 1 C-0.67 0.67 -0.34 0.34 0 0 Z " fill="#F9B721" transform="translate(207,111)"/>
<path d="M0 0 C0.99 0 1.98 0 3 0 C3 2.31 3 4.62 3 7 C2.01 7 1.02 7 0 7 C0 4.69 0 2.38 0 0 Z " fill="#F9B423" transform="translate(218,112)"/>
<path d="M0 0 C0.99 0 1.98 0 3 0 C3 2.31 3 4.62 3 7 C2.01 7 1.02 7 0 7 C0 4.69 0 2.38 0 0 Z " fill="#F9B522" transform="translate(212,112)"/>
<path d="M0 0 C0.721875 0.103125 1.44375 0.20625 2.1875 0.3125 C1.61 0.56 1.0325 0.8075 0.4375 1.0625 C-2.1127997 2.47933317 -3.83035701 4.18877537 -5.8125 6.3125 C-6.4725 5.9825 -7.1325 5.6525 -7.8125 5.3125 C-3.50480769 0.38942308 -3.50480769 0.38942308 0 0 Z " fill="#F6E09B" transform="translate(179.8125,74.6875)"/>
<path d="M0 0 C2.475 0.495 2.475 0.495 5 1 C4.67 1.99 4.34 2.98 4 4 C2.68 3.67 1.36 3.34 0 3 C0 2.01 0 1.02 0 0 Z " fill="#E2DC1A" transform="translate(220,84)"/>
</svg>
